<svg width="176" height="29" viewBox="0 0 176 29" fill="none" xmlns="http://www.w3.org/2000/svg">
<path d="M29.5216 29L17.7276 15.6608H29.5216V13.3392H17.7276L29.5216 0H23.6368L5.94984 13.3392H2.35718L0 15.6608H5.94984L23.6368 29H29.5216ZM36.902 21.764H52.7602V18.2536H41.1531V16.0358H51.7198V12.9802H41.1531V10.7862H52.7764V7.24402H36.9264L36.902 21.764ZM74.9095 21.764H79.1443V7.24402H71.9183L66.9439 16.315L62.0345 7.24402H54.8816V21.764H59.1083V11.4484H59.214L64.9037 21.8198H69.0816L74.7713 11.4484H74.942L74.9095 21.764ZM94.466 17.1367C94.466 17.9904 94.0433 18.4691 93.3037 18.4691H85.5087V15.8602H93.3037C93.469 15.8578 93.633 15.8903 93.7845 15.9554C93.936 16.0206 94.0715 16.117 94.1817 16.2381C94.2919 16.3591 94.3744 16.502 94.4234 16.657C94.4725 16.8121 94.487 16.9757 94.466 17.1367V17.1367ZM94.0108 11.7037C94.0108 12.5015 93.6288 12.9004 92.9216 12.9004H85.5087V10.507H92.9216C93.0759 10.5072 93.2284 10.5393 93.3692 10.6013C93.51 10.6632 93.6358 10.7536 93.7386 10.8665C93.8414 10.9794 93.9188 11.1124 93.9657 11.2566C94.0126 11.4009 94.0279 11.5532 94.0108 11.7037V11.7037ZM96.3111 14.3763C96.951 14.1612 97.499 13.7417 97.8674 13.1849C98.2357 12.6281 98.4033 11.9661 98.3431 11.3048C98.3431 8.57635 96.8475 7.24402 93.7426 7.24402H81.3064V21.764H94.4091C97.4815 21.764 98.8471 20.6311 98.8471 17.8228C98.8471 15.7565 98.0912 14.6795 96.3355 14.3763H96.3111ZM139.968 21.764H155.818V18.2536H144.194V16.0358H154.761V12.9802H144.194V10.7862H155.818V7.24402H139.968V21.764ZM114.299 12.5015C114.299 13.8817 113.949 14.4162 112.771 14.4162H104.724V10.866H112.771C113.86 10.866 114.299 11.3846 114.299 12.4616V12.5015ZM114.258 21.7241H118.477V18.7563C118.529 18.1114 118.333 17.4706 117.929 16.9599C117.524 16.4492 116.94 16.1053 116.29 15.9959C118.03 15.5571 118.59 14.3524 118.59 11.959C118.59 8.18542 117.111 7.17222 112.901 7.17222H100.481V21.6922H104.724V17.9824H112.348C113.746 17.9824 114.258 18.2457 114.258 19.4743V21.7241ZM132.059 15.8204H126.459L129.23 10.6825L132.059 15.8204ZM135.066 21.7241H139.943L132.116 7.20412H126.426L118.444 21.7241H123.321L124.744 19.3307H133.644L135.066 21.7241ZM171.7 12.4616C171.7 13.8418 171.359 14.3763 170.18 14.3763H162.125V10.8261H170.18C171.261 10.8261 171.7 11.3447 171.7 12.4217V12.4616ZM176 11.9191C176 8.14553 174.513 7.13233 170.31 7.13233H157.882V21.6523H162.125V17.9425H169.758C171.147 17.9425 171.668 18.2058 171.668 19.4344V21.6523H175.886V18.6845C175.938 18.0384 175.742 17.3967 175.335 16.8858C174.929 16.3748 174.343 16.0317 173.692 15.9241C175.431 15.4853 176 14.2806 176 11.8872" fill="#0067B1"/>
</svg>
