<?xml version="1.0" encoding="UTF-8"?>
<svg id="Camada_2" xmlns="http://www.w3.org/2000/svg" version="1.1" xmlns:xlink="http://www.w3.org/1999/xlink" viewBox="0 0 197.2 236">
  <!-- Generator: Adobe Illustrator 30.3.0, SVG Export Plug-In . SVG Version: 2.1.3 Build 182)  -->
  <defs>
    <style>
      .st0 {
        fill: url(#Gradiente_sem_nome_2);
      }

      .st1 {
        fill: url(#Gradiente_sem_nome);
      }

      .st2 {
        fill: url(#Gradiente_sem_nome_4);
      }

      .st3 {
        fill: url(#Gradiente_sem_nome_3);
      }
    </style>
    <linearGradient id="Gradiente_sem_nome" data-name="Gradiente sem nome" x1="167" y1="146" x2="94.4" y2="73.4" gradientTransform="translate(0 233.5) scale(1 -1)" gradientUnits="userSpaceOnUse">
      <stop offset="0" stop-color="#00afe0"/>
      <stop offset="1" stop-color="#007094"/>
    </linearGradient>
    <linearGradient id="Gradiente_sem_nome_2" data-name="Gradiente sem nome 2" x1="110.6" y1="221.6" x2="110.6" y2="127.9" gradientTransform="translate(0 233.5) scale(1 -1)" gradientUnits="userSpaceOnUse">
      <stop offset="0" stop-color="#0c68a3"/>
      <stop offset="1" stop-color="#162b51"/>
    </linearGradient>
    <linearGradient id="Gradiente_sem_nome_3" data-name="Gradiente sem nome 3" x1="32.8" y1="75.8" x2="89.2" y2="173.3" gradientTransform="translate(0 233.5) scale(1 -1)" gradientUnits="userSpaceOnUse">
      <stop offset="0" stop-color="#ac2f88"/>
      <stop offset="1" stop-color="#730e5d"/>
    </linearGradient>
    <linearGradient id="Gradiente_sem_nome_4" data-name="Gradiente sem nome 4" x1="86.6" y1="9.5" x2="86.6" y2="103.2" gradientTransform="translate(0 233.5) scale(1 -1)" gradientUnits="userSpaceOnUse">
      <stop offset="0" stop-color="#8d3685"/>
      <stop offset="1" stop-color="#67115d"/>
    </linearGradient>
  </defs>
  <g id="Camada_1-2">
    <g>
      <path class="st1" d="M148.8,93.5l-60.6,60.6,24.3,24.3,60.5-60.6c6.7-6.7,6.7-17.6,0-24.3l-24.3-24.3c6.7,6.7,6.7,17.6,0,24.3"/>
      <path class="st0" d="M148.8,93.5l-12.1,12.1L69.9,38.8c-3.4-3.4-3.4-8.9,0-12.2l12.1-12.1c3.3-3.3,8.7-3.3,12,0l54.8,54.8c6.7,6.7,6.7,17.6,0,24.3h0Z"/>
      <path class="st3" d="M48.4,142.5l60.5-60.6-24.3-24.3-60.5,60.6c-6.7,6.7-6.7,17.6,0,24.3l24.3,24.3c-6.7-6.7-6.7-17.6,0-24.3"/>
      <path class="st2" d="M48.4,142.5l12.1-12.1,66.8,66.8c3.4,3.4,3.4,8.9,0,12.2l-12.1,12.1c-3.3,3.3-8.7,3.3-12,0l-54.8-54.8c-6.7-6.7-6.7-17.6,0-24.3h0Z"/>
    </g>
  </g>
</svg>